<?xml version="1.0" encoding="utf-8"?>
<!-- Generator: Adobe Illustrator 23.0.3, SVG Export Plug-In . SVG Version: 6.00 Build 0)  -->
<svg version="1.1" id="Layer_1" xmlns="http://www.w3.org/2000/svg" xmlns:xlink="http://www.w3.org/1999/xlink" x="0px" y="0px"
	 viewBox="0 0 771 771" style="enable-background:new 0 0 771 771;" xml:space="preserve">
<style type="text/css">
	.st0{fill:#400000;}
	.st1{fill:#FFCCAA;}
	.st2{fill:none;stroke:#3E0000;stroke-width:11.49;stroke-linejoin:round;}
	.st3{fill:#443333;}
	.st4{fill:#84222F;}
	.st5{fill:#400000;stroke:#400000;stroke-width:12;stroke-miterlimit:10;}
	.st6{fill:none;stroke:#400000;stroke-width:0.5;stroke-linecap:round;stroke-linejoin:round;stroke-miterlimit:10;}
	.st7{fill:#A0606E;stroke:#400000;stroke-width:6;stroke-miterlimit:10;}
</style>
<g>
	<rect x="579" y="381.4" class="st0" width="189.1" height="40.6"/>
	<path class="st0" d="M765.1,384.5V419H581.9v-34.5H765.1 M771,378.4h-5.9H581.9H576v6.1V419v6.1h5.9h183.2h5.9V419v-34.5V378.4
		L771,378.4z"/>
</g>
<g>
	<g>
		<path class="st1" d="M470.6,387.5c-4.9,0-8.8-4-8.8-8.8c0-4.9,4-8.8,8.8-8.8h23.8c8.1,0,14.7,6.6,14.7,14.7v3h-38.5V387.5z"/>
		<path class="st0" d="M494.4,366.8h-23.8c-6.5,0-11.8,5.3-11.8,11.8s5.3,11.8,11.8,11.8h35.5h6v-6
			C512.1,374.7,504.2,366.8,494.4,366.8L494.4,366.8z M494.4,372.8c6.4,0,11.7,5.2,11.7,11.7l0,0h-35.5c-3.2,0-5.8-2.6-5.8-5.8l0,0
			c0-3.2,2.6-5.8,5.8-5.8h23.8"/>
	</g>
	<g>
		<path class="st1" d="M506.1,384.5l-3,10l-14.3-10h-18.2c-3.2,0-5.8-2.6-5.8-5.8l0,0c0-3.2,2.6-5.8,5.8-5.8h23.8
			C500.9,372.8,506.1,378,506.1,384.5L506.1,384.5z"/>
	</g>
</g>
<title>WatchArtboard 3 copy 6</title>
<g id="MUSTACHE">
	<g id="path788">
		<path class="st2" d="M485.2,364c-0.5-5-0.9-11.8-2.3-11.9c-0.6,0.3-0.3,1.8-0.4,2.4s-1.3,7.6-3.2,9.4c-1.4,1.3-2.7,1.6-5.5,1.5
			c-4.5-0.3-10.5-2.9-25.3-11.2c-16.4-9.1-27.5-12.9-36.6-12.5c-4.1,0.1-8.2,1.3-11.7,3.5c-2.9,2-5.5,4.5-7.7,7.3
			c-3.1,4.3-6.2,10.7-6.7,14.2c-0.2,1.5-0.5,1.5-0.8,0c-0.4-3-2.7-8.2-5.3-12.3c-1.2-1.7-2.4-3.3-3.9-4.9
			c-5.5-5.8-10.8-7.9-19.6-7.8c-9.3,0-18.2,3.9-36.2,13.8c-7.8,4.3-15,7.9-18,8.9c-1.5,0.6-3.2,0.9-4.8,1c-2.9,0.2-4.1-0.1-5.6-1.4
			c-1.9-1.7-2.8-3.9-3.2-8.7c-0.1-1.1-0.2-2.2-0.4-3.3c-0.3-0.4-1.5,4.5-2,8.7c-2.5,18.5,3.1,32.3,16.4,40.1
			c5.9,3.3,12.4,5.3,19.1,5.9c5.1,0.3,10.1,0.3,15.2-0.1c24-2.6,44.5-15.6,48-30.5c0.6-2.8,0.7-2.8,1.1-0.8
			c0.9,4.4,3.6,9.1,7.4,13.3c7.9,8.4,21.2,14.8,36,17.3c11.6,2,23.6,1.2,32.4-2c3.1-1.2,6.1-2.6,8.9-4.4
			C481.7,392,486.7,379.7,485.2,364"/>
		<path class="st3" d="M485.2,364c-0.5-5-2.3-11.9-2.3-11.9s-0.4,1.6-0.4,2.4c-0.3,4.8-1.3,7.6-3.2,9.4c-1.4,1.3-2.7,1.6-5.5,1.5
			c-4.5-0.3-10.5-2.9-25.3-11.2c-16.4-9.1-27.5-12.9-36.6-12.5c-4.1,0.1-8.2,1.3-11.7,3.5c-2.9,2-5.5,4.5-7.7,7.3
			c-3.1,4.3-6.2,10.7-6.7,14.2c-0.2,1.5-0.5,1.5-0.8,0c-0.4-3-2.7-8.2-5.3-12.3c-1.2-1.7-2.4-3.3-3.9-4.9
			c-5.5-5.8-10.8-7.9-19.6-7.8c-9.3,0-18.2,3.9-36.2,13.8c-7.8,4.3-15,7.9-18,8.9c-1.5,0.6-3.2,0.9-4.8,1c-2.9,0.2-4.1-0.1-5.6-1.4
			c-1.9-1.7-2.8-3.9-3.2-8.7c-0.1-1.1-0.2-2.2-0.4-3.3c-0.3-0.4-1.5,4.5-2,8.7c-2.5,18.5,3.1,32.3,16.4,40.1
			c5.9,3.3,12.4,5.3,19.1,5.9c5.1,0.3,10.1,0.3,15.2-0.1c24-2.6,44.5-15.6,48-30.5c0.6-2.8,0.7-2.8,1.1-0.8
			c0.9,4.4,3.6,9.1,7.4,13.3c7.9,8.4,21.2,14.8,36,17.3c11.6,2,23.6,1.2,32.4-2c3.1-1.2,6.1-2.6,8.9-4.4
			C481.7,392,486.7,379.7,485.2,364"/>
	</g>
</g>
<path class="st1" d="M451.1,384.5H490V419h-16.2c-4.9,0-8.8-3.9-8.8-8.8v-14.1h-13.9c-3.2,0-5.8-2.6-5.8-5.8
	S447.9,384.5,451.1,384.5L451.1,384.5L451.1,384.5z"/>
<g>
	<rect x="582.1" y="384.5" class="st4" width="188.9" height="34.5"/>
</g>
<path class="st5" d="M488.8,384.5h-13.4h-24.3c-3.2,0-5.8,2.6-5.8,5.8l0,0c0,2.6,1.7,4.9,4.1,5.6h-1.8c-3.2,0-5.8,2.6-5.8,5.8
	c0,3.2,2.6,5.8,5.8,5.8h6.8c-3.2,0-5.7,2.6-5.7,5.7s2.6,5.7,5.7,5.7h21h8.9h97.8v-34.5h-76"/>
<g>
	<path class="st1" d="M475.4,384.5h-24.3c-3.2,0-5.8,2.6-5.8,5.8l0,0c0,2.6,1.7,4.9,4.1,5.6h-1.8c-3.2,0-5.8,2.6-5.8,5.8
		c0,3.2,2.6,5.8,5.8,5.8h6.8c-3.2,0-5.7,2.6-5.7,5.7s2.6,5.7,5.7,5.7h21h8.9h97.8v-34.5h-98.3L475.4,384.5z"/>
</g>
<line class="st6" x1="443.3" y1="395.9" x2="472.4" y2="395.9"/>
<line class="st6" x1="443.3" y1="407.5" x2="472.4" y2="407.5"/>
<rect x="582.1" y="378.5" class="st7" width="19.8" height="46.5"/>
<g>
	<path class="st1" d="M506.1,385.2l-3,10l-14.3-10l5.6-11.6C500.9,373.5,506.1,378.7,506.1,385.2z"/>
</g>
</svg>
