<?xml version="1.0" encoding="utf-8"?>
<!-- Generator: Adobe Illustrator 23.0.3, SVG Export Plug-In . SVG Version: 6.00 Build 0)  -->
<svg version="1.1" id="Layer_1" xmlns="http://www.w3.org/2000/svg" xmlns:xlink="http://www.w3.org/1999/xlink" x="0px" y="0px"
	 viewBox="0 0 771 771" style="enable-background:new 0 0 771 771;" xml:space="preserve">
<style type="text/css">
	.st0{fill:none;stroke:#3E0000;stroke-width:11.49;stroke-linecap:round;stroke-miterlimit:10;}
	.st1{fill:#FFCCAA;}
	.st2{opacity:0.15;}
	.st3{fill:#3E0000;}
	.st4{fill:none;stroke:#3E0000;stroke-width:11.49;stroke-linecap:round;stroke-linejoin:round;}
	.st5{fill:#443333;}
	.st6{opacity:0.1;fill:#3E0000;}
	.st7{opacity:0.15;fill:#3E0000;}
</style>
<title>WatchArtboard 3 copy 6</title>
<g id="HEAD">
	<path class="st0" d="M303.7,316.4h163.6c7,0,12.7,5.7,12.7,12.7l0,0c0,7-5.7,12.7-12.7,12.7H303.7c-7,0-12.7-5.7-12.7-12.7l0,0
		C291,322.1,296.7,316.4,303.7,316.4z"/>
	<path class="st1" d="M303.7,316.4h163.6c7,0,12.7,5.7,12.7,12.7l0,0c0,7-5.7,12.7-12.7,12.7H303.7c-7,0-12.7-5.7-12.7-12.7l0,0
		C291,322.1,296.7,316.4,303.7,316.4z"/>
	<g class="st2">
		<path class="st3" d="M304.7,319.6h161.7c5.2,0,9.5,4.2,9.5,9.5l0,0c0,5.2-4.2,9.5-9.5,9.5H304.7c-5.2,0-9.5-4.2-9.5-9.5l0,0
			C295.2,323.9,299.4,319.6,304.7,319.6z"/>
	</g>
	<g id="rect5667">
		<path class="st0" d="M343.6,259.7h83.8c20.9,0,37.9,16.4,37.9,36.5V377c0,20.2-17,36.5-37.9,36.5h-83.8
			c-20.9,0-37.9-16.4-37.9-36.5v-80.8C305.7,276.1,322.7,259.7,343.6,259.7z"/>
		<path class="st1" d="M343.6,259.7h83.8c20.9,0,37.9,16.4,37.9,36.5V377c0,20.2-17,36.5-37.9,36.5h-83.8
			c-20.9,0-37.9-16.4-37.9-36.5v-80.8C305.7,276.1,322.7,259.7,343.6,259.7z"/>
	</g>
	<g id="rect5675">
		<path class="st4" d="M401.6,232.6c-1.6,0-2.8,1.3-2.8,2.8l0,0V247h-89.6c-1.6,0-2.8,1.2-2.8,2.8l0,0v10c-0.3-0.1-0.5-0.1-0.8-0.1
			h-6c-1.6,0-2.8,1.3-2.8,2.8l0,0v39.8c0,1.6,1.3,2.8,2.8,2.8l0,0h6c1.6,0,2.8-1.3,2.8-2.8l0,0v-33.9c0.3,0.1,0.6,0.1,0.8,0.1h153.5
			v31.2c0,1.6,1.3,2.8,2.8,2.9l0,0h6c1.6,0,2.8-1.3,2.9-2.8l0,0v-64.4c0-1.6-1.3-2.8-2.8-2.9l0,0L401.6,232.6z"/>
		<path class="st5" d="M401.6,232.6c-1.6,0-2.8,1.3-2.8,2.8l0,0V247h-89.6c-1.6,0-2.8,1.2-2.8,2.8l0,0v10c-0.3-0.1-0.5-0.1-0.8-0.1
			h-6c-1.6,0-2.8,1.3-2.8,2.8l0,0v39.8c0,1.6,1.3,2.8,2.8,2.8l0,0h6c1.6,0,2.8-1.3,2.8-2.8l0,0v-33.9c0.3,0.1,0.6,0.1,0.8,0.1h153.5
			v31.2c0,1.6,1.3,2.8,2.8,2.9l0,0h6c1.6,0,2.8-1.3,2.9-2.8l0,0v-64.4c0-1.6-1.3-2.8-2.8-2.9l0,0L401.6,232.6z"/>
	</g>
</g>
<g id="EYES">
	<path class="st3" d="M364.8,325c-0.6,1.6-0.3,1.4-5.4,4.5l-4.9,3l-3.9,2.4h-0.4c-8.4-0.3-15.1-7.3-14.8-15.7
		c0.2-8.1,6.8-14.7,15-14.8h0.2c0.9,0,1.7,0.1,2.5,0.2h0.2c0.7,0.1,1.5,0.3,2.2,0.6l0.2,0.1c5,1.9,8.7,6.2,9.8,11.5
		c0.3,1.9,0.3,3.9,0,5.8C365.3,323.3,365,324.2,364.8,325z"/>
	<path class="st3" d="M403.7,325c0.6,1.6,0.3,1.4,5.4,4.5l4.9,3l3.9,2.4h0.4c8.4-0.3,15.1-7.3,14.8-15.8c-0.3-8.1-6.8-14.7-15-14.8
		h-0.2c-0.9,0-1.7,0.1-2.6,0.2h-0.1c-0.7,0.1-1.5,0.3-2.2,0.6l-0.2,0.1c-5.1,1.9-8.7,6.3-9.7,11.6c-0.3,1.9-0.3,3.9,0,5.8
		C403.2,323.4,403.4,324.2,403.7,325z"/>
</g>
<g id="BROWS">
	<g id="rect5703">
		<path class="st4" d="M326.8,290.1l37.6-4.9c2-0.3,3.8,1.1,4,3.1l0.4,3c0.3,2-1.1,3.8-3.1,4l-37.6,4.9c-2,0.3-3.8-1.1-4-3.1l-0.4-3
			C323.5,292.2,324.9,290.4,326.8,290.1z"/>
		<path class="st5" d="M326.8,290.1l37.6-4.9c2-0.3,3.8,1.1,4,3.1l0.4,3c0.3,2-1.1,3.8-3.1,4l-37.6,4.9c-2,0.3-3.8-1.1-4-3.1l-0.4-3
			C323.5,292.2,324.9,290.4,326.8,290.1z"/>
	</g>
	<g id="rect5703-2">
		<path class="st4" d="M399.6,291l0.4-3c0.3-2,2.1-3.4,4-3.1l37.6,4.9c2,0.3,3.4,2.1,3.1,4l-0.4,3c-0.3,2-2.1,3.4-4,3.1l-37.6-4.9
			C400.7,294.8,399.3,293,399.6,291z"/>
		<path class="st5" d="M399.6,291l0.4-3c0.3-2,2.1-3.4,4-3.1l37.6,4.9c2,0.3,3.4,2.1,3.1,4l-0.4,3c-0.3,2-2.1,3.4-4,3.1l-37.6-4.9
			C400.7,294.8,399.3,293,399.6,291z"/>
	</g>
</g>
<path class="st6" d="M397.8,357.6h-24.5c-4,0-7.3-3.3-7.3-7.3l0,0c0-4,3.3-7.3,7.3-7.3h24.5c4,0,7.3,3.3,7.3,7.3l0,0
	C405,354.4,401.8,357.6,397.8,357.6z"/>
<path class="st7" d="M419.9,392.9h-68.8c-4,0-7.3-3.3-7.3-7.3l0,0c0-4,3.3-7.3,7.3-7.3h68.8c4,0,7.3,3.3,7.3,7.3l0,0
	C427.2,389.6,423.9,392.9,419.9,392.9z"/>
</svg>
