<?xml version="1.0" encoding="utf-8"?>
<!-- Generator: Adobe Illustrator 23.0.6, SVG Export Plug-In . SVG Version: 6.00 Build 0)  -->
<svg version="1.1" id="Layer_1" xmlns="http://www.w3.org/2000/svg" xmlns:xlink="http://www.w3.org/1999/xlink" x="0px" y="0px"
	 viewBox="0 0 771 771" style="enable-background:new 0 0 771 771;" xml:space="preserve">
<style type="text/css">
	.st0{fill:none;stroke:#3E0000;stroke-width:11.49;stroke-linecap:round;stroke-miterlimit:10;}
	.st1{fill:#FFCCAA;}
	.st2{opacity:0.15;}
	.st3{fill:#3E0000;}
	.st4{fill:none;stroke:#3E0000;stroke-width:11.49;stroke-linecap:round;stroke-linejoin:round;}
	.st5{fill:#443333;}
	.st6{opacity:0.15;enable-background:new    ;}
	.st7{fill:none;stroke:#3E0000;stroke-width:15;stroke-linecap:round;stroke-linejoin:round;stroke-miterlimit:10;}
	.st8{fill:#FFF2E9;}
	.st9{fill:#3D0E1C;}
	.st10{fill:#10A3DD;}
	.st11{fill:#F1BF4D;}
	.st12{fill:#E23466;}
	.st13{fill:none;stroke:#3D0E1C;stroke-width:23;stroke-linecap:round;stroke-miterlimit:10;}
	.st14{fill:none;stroke:#E23466;stroke-width:15;stroke-linecap:round;stroke-miterlimit:10;}
</style>
<title>WatchArtboard 3 copy 6</title>
<g id="HEAD">
	<path class="st0" d="M303.7,316.4h163.6c7,0,12.7,5.7,12.7,12.7l0,0c0,7-5.7,12.7-12.7,12.7H303.7c-7,0-12.7-5.7-12.7-12.7l0,0
		C291,322.1,296.7,316.4,303.7,316.4z"/>
	<path class="st1" d="M303.7,316.4h163.6c7,0,12.7,5.7,12.7,12.7l0,0c0,7-5.7,12.7-12.7,12.7H303.7c-7,0-12.7-5.7-12.7-12.7l0,0
		C291,322.1,296.7,316.4,303.7,316.4z"/>
	<g class="st2">
		<path class="st3" d="M304.7,319.6h161.7c5.2,0,9.5,4.2,9.5,9.5l0,0c0,5.2-4.2,9.5-9.5,9.5H304.7c-5.2,0-9.5-4.2-9.5-9.5l0,0
			C295.2,323.9,299.4,319.6,304.7,319.6z"/>
	</g>
	<g id="rect5667">
		<path class="st0" d="M343.6,259.7h83.8c20.9,0,37.9,16.4,37.9,36.5V377c0,20.2-17,36.5-37.9,36.5h-83.8
			c-20.9,0-37.9-16.4-37.9-36.5v-80.8C305.7,276.1,322.7,259.7,343.6,259.7z"/>
		<path class="st1" d="M343.6,259.7h83.8c20.9,0,37.9,16.4,37.9,36.5V377c0,20.2-17,36.5-37.9,36.5h-83.8
			c-20.9,0-37.9-16.4-37.9-36.5v-80.8C305.7,276.1,322.7,259.7,343.6,259.7z"/>
	</g>
	<g id="rect5675">
		<path class="st4" d="M401.6,232.6c-1.6,0-2.8,1.3-2.8,2.8l0,0V247h-89.6c-1.6,0-2.8,1.2-2.8,2.8l0,0v10c-0.3-0.1-0.5-0.1-0.8-0.1
			h-6c-1.6,0-2.8,1.3-2.8,2.8l0,0v39.8c0,1.6,1.3,2.8,2.8,2.8l0,0h6c1.6,0,2.8-1.3,2.8-2.8l0,0v-33.9c0.3,0.1,0.6,0.1,0.8,0.1h153.5
			v31.2c0,1.6,1.3,2.8,2.8,2.9l0,0h6c1.6,0,2.8-1.3,2.9-2.8l0,0v-64.4c0-1.6-1.3-2.8-2.8-2.9l0,0L401.6,232.6z"/>
		<path class="st5" d="M401.6,232.6c-1.6,0-2.8,1.3-2.8,2.8l0,0V247h-89.6c-1.6,0-2.8,1.2-2.8,2.8l0,0v10c-0.3-0.1-0.5-0.1-0.8-0.1
			h-6c-1.6,0-2.8,1.3-2.8,2.8l0,0v39.8c0,1.6,1.3,2.8,2.8,2.8l0,0h6c1.6,0,2.8-1.3,2.8-2.8l0,0v-33.9c0.3,0.1,0.6,0.1,0.8,0.1h153.5
			v31.2c0,1.6,1.3,2.8,2.8,2.9l0,0h6c1.6,0,2.8-1.3,2.9-2.8l0,0v-64.4c0-1.6-1.3-2.8-2.8-2.9l0,0L401.6,232.6z"/>
	</g>
</g>
<g id="EYES">
	<path class="st3" d="M364.8,325c-0.6,1.6-0.3,1.4-5.4,4.5l-4.9,3l-3.9,2.4h-0.4c-8.4-0.3-15.1-7.3-14.8-15.7
		c0.2-8.1,6.8-14.7,15-14.8h0.2c0.9,0,1.7,0.1,2.5,0.2h0.2c0.7,0.1,1.5,0.3,2.2,0.6l0.2,0.1c5,1.9,8.7,6.2,9.8,11.5
		c0.3,1.9,0.3,3.9,0,5.8C365.3,323.3,365,324.2,364.8,325z"/>
	<path class="st3" d="M403.7,325c0.6,1.6,0.3,1.4,5.4,4.5l4.9,3l3.9,2.4h0.4c8.4-0.3,15.1-7.3,14.8-15.8c-0.3-8.1-6.8-14.7-15-14.8
		h-0.2c-0.9,0-1.7,0.1-2.6,0.2h-0.1c-0.7,0.1-1.5,0.3-2.2,0.6l-0.2,0.1c-5.1,1.9-8.7,6.3-9.7,11.6c-0.3,1.9-0.3,3.9,0,5.8
		C403.2,323.4,403.4,324.2,403.7,325z"/>
</g>
<g id="BROWS">
	<g id="rect5703">
		<path class="st4" d="M326.8,290.1l37.6-4.9c2-0.3,3.8,1.1,4,3.1l0.4,3c0.3,2-1.1,3.8-3.1,4l-37.6,4.9c-2,0.3-3.8-1.1-4-3.1l-0.4-3
			C323.5,292.2,324.9,290.4,326.8,290.1z"/>
		<path class="st5" d="M326.8,290.1l37.6-4.9c2-0.3,3.8,1.1,4,3.1l0.4,3c0.3,2-1.1,3.8-3.1,4l-37.6,4.9c-2,0.3-3.8-1.1-4-3.1l-0.4-3
			C323.5,292.2,324.9,290.4,326.8,290.1z"/>
	</g>
	<g id="rect5703-2">
		<path class="st4" d="M399.6,291l0.4-3c0.3-2,2.1-3.4,4-3.1l37.6,4.9c2,0.3,3.4,2.1,3.1,4l-0.4,3c-0.3,2-2.1,3.4-4,3.1l-37.6-4.9
			C400.7,294.8,399.3,293,399.6,291z"/>
		<path class="st5" d="M399.6,291l0.4-3c0.3-2,2.1-3.4,4-3.1l37.6,4.9c2,0.3,3.4,2.1,3.1,4l-0.4,3c-0.3,2-2.1,3.4-4,3.1l-37.6-4.9
			C400.7,294.8,399.3,293,399.6,291z"/>
	</g>
</g>
<g class="st6">
	<path class="st7" d="M351.8,371.1c22.2,5.3,45.3,5.3,67.4,0"/>
</g>
<g>
	<g>
		<g>
			<g>
				<path class="st8" d="M330.7,239.4c-0.7,0-1.4-0.4-1.8-1c-0.4-0.6-0.4-1.4-0.1-2.1l13.3-28l9-19l8-16.9l24.5-51.5
					c0.4-0.7,1.1-1.2,1.9-1.2c0,0,0,0,0,0c0.8,0,1.6,0.5,1.9,1.2l7.8,16.4l9.5,19.9l33.7,70.7c0,0,0,0.1,0,0.1l3.9,8.1
					c0.3,0.7,0.3,1.4-0.1,2.1c-0.4,0.6-1.1,1-1.8,1H330.7z"/>
			</g>
			<g>
				<path class="st9" d="M385.6,122l7.8,16.4l9.5,19.9l33.7,70.7v0l3.9,8.2H330.7l4.7-9.9l8.6-18.1l9-19l8-16.9L385.6,122
					 M385.6,117.7c-1.7,0-3.2,1-3.9,2.4l-24.5,51.5l-8,16.9l-9,19l-8.6,18.1l-4.7,9.9c-0.6,1.3-0.5,2.9,0.2,4.1c0.8,1.2,2.2,2,3.6,2
					h109.8c1.5,0,2.8-0.8,3.6-2c0.8-1.2,0.9-2.8,0.2-4.1l-3.9-8.1c0,0,0-0.1-0.1-0.1l-33.7-70.7l-9.5-19.9l-7.8-16.4
					C388.7,118.7,387.2,117.7,385.6,117.7L385.6,117.7z"/>
			</g>
		</g>
		<g>
			<g>
				<path class="st10" d="M399.4,221c-3.1,0-5.8-0.9-8.1-2.6c-2.4-1.8-3.8-3.9-4.1-6.1c-0.4-3.8,2.5-7.2,5.2-10.4
					c1.6-1.9,3.3-3.8,4.1-5.6c1-2.4,1.3-5.1,1.5-7.7c0.5-5.1,1-11.5,9.5-11.5c0.3,0,0.5,0,0.8,0c2.6,0.1,4.9,1.1,6.9,2.8l0.5,0.7
					l5.9,12.3l0.2,0.6c0.8,5,0.6,10.1-0.7,13.2C418.3,213.5,408.4,221,399.4,221z"/>
			</g>
			<g>
				<path class="st9" d="M407.6,179.3c0.2,0,0.5,0,0.7,0c2.2,0.1,4.1,0.9,5.6,2.3l5.9,12.3c0.8,4.7,0.5,9.3-0.6,12
					c-2.6,6.1-11.7,13-19.8,13c-2.5,0-4.8-0.6-6.8-2.1c-8.8-6.5,3-12.7,6-19.5C402,189.4,397.7,179.3,407.6,179.3 M407.6,175v4.3
					V175c-4.6,0-7.8,1.7-9.7,5c-1.4,2.5-1.7,5.5-1.9,8.4c-0.2,2.5-0.4,5-1.3,7c-0.7,1.5-2.2,3.3-3.8,5.1c-2.9,3.4-6.3,7.3-5.7,12
					c0.3,2.8,2,5.4,4.9,7.6c2.7,2,5.8,3,9.4,3c10.1,0,20.6-8.2,23.7-15.6c1.5-3.5,1.8-8.9,0.9-14.4l-0.4-1.1l-5.9-12.3l-1.1-1.4
					c-2.4-2.1-5.2-3.2-8.2-3.3C408.2,175,407.9,175,407.6,175L407.6,175z"/>
			</g>
		</g>
		<g>
			<g>
				<path class="st10" d="M366.1,239.4c-0.6,0-1.2-0.3-1.6-0.7c-0.4-0.5-0.6-1.1-0.5-1.7c0.1-0.9,0.2-1.7,0.2-2.5
					c0.3-3.3,0.6-6.3,1.9-8.8c1.7-3,4.6-4.4,8.9-4.4c0.3,0,0.6,0,0.9,0c6.9,0.3,12.3,5.9,14.7,15.4c0.2,0.6,0,1.3-0.4,1.9
					c-0.4,0.5-1,0.8-1.7,0.8H366.1z"/>
			</g>
			<g>
				<path class="st9" d="M375,223.4c0.3,0,0.6,0,0.8,0c6.8,0.3,10.9,6.7,12.8,13.8h-22.5C366.9,230.1,366.3,223.4,375,223.4
					 M375,219.1v4.3V219.1C375,219.1,375,219.1,375,219.1c-5.1,0-8.7,1.9-10.8,5.5c-1.6,2.8-1.9,6.1-2.2,9.6
					c-0.1,0.8-0.1,1.7-0.2,2.5c-0.1,1.2,0.3,2.4,1.1,3.3s2,1.4,3.2,1.4h22.5c1.3,0,2.6-0.6,3.4-1.7c0.8-1.1,1.1-2.4,0.8-3.7
					c-2.7-10.5-8.8-16.7-16.7-17C375.7,219.1,375.4,219.1,375,219.1L375,219.1z"/>
			</g>
		</g>
		<g>
			<g>
				<path class="st11" d="M343.2,230.7c-2.6,0-5.6-0.5-8.5-1.3c-0.6-0.2-1.1-0.6-1.3-1.2c-0.3-0.6-0.2-1.2,0-1.8l8.6-18.1
					c0.3-0.6,0.8-1,1.5-1.2c0.2,0,0.3-0.1,0.5-0.1c0.5,0,1,0.2,1.3,0.5c1.3,1.1,2.9,2,4.3,2.8c4.5,2.7,10.1,5.9,5.9,14
					C353.4,228.6,349.1,230.7,343.2,230.7z"/>
			</g>
			<g>
				<path class="st9" d="M344,209.3c5.9,4.6,14.1,5.8,9.7,14.2c-2,3.8-6,5.2-10.4,5.2c-2.6,0-5.3-0.5-7.9-1.2L344,209.3 M344,205
					c-0.3,0-0.6,0-1,0.1c-1.3,0.3-2.3,1.2-2.9,2.3l-8.6,18.1c-0.5,1.1-0.6,2.4,0,3.6c0.5,1.1,1.5,2,2.7,2.4c3.1,0.9,6.3,1.4,9.1,1.4
					c6.6,0,11.7-2.6,14.2-7.4c2.3-4.3,2.3-8.1,0.2-11.3c-1.7-2.5-4.3-4.1-6.9-5.6c-1.4-0.8-2.9-1.7-4.1-2.7
					C345.9,205.3,344.9,205,344,205L344,205z"/>
			</g>
		</g>
		<g>
			<path class="st11" d="M402.8,158.3c-0.6,0-1.1,0-1.6,0c-8.6,0.8-15.3,9.7-20,0.2c-3.8-7.6,4.8-16.4,12.2-20.2L402.8,158.3z"/>
			<path class="st9" d="M386.7,165c-2.7,0-5.3-1.3-7.4-5.5c-2.1-4.1-1.3-9,2.1-13.7c2.6-3.6,6.7-7.1,11-9.3c0.5-0.3,1.1-0.3,1.7-0.1
				c0.6,0.2,1,0.6,1.3,1.1l9.5,19.9c0.3,0.7,0.3,1.5-0.1,2.1c-0.4,0.6-1.1,1-1.9,1c-0.4,0-0.9,0-1.3,0c-2.5,0.2-5,1.3-7.3,2.4
				C391.8,163.9,389.2,165,386.7,165z M392.4,141.4c-5.9,3.7-12.1,10.6-9.3,16.2c2.1,4.3,3.9,3.7,9.2,1.4c2.2-1,4.6-2,7.2-2.5
				L392.4,141.4z"/>
		</g>
		<g>
			<g>
				<path class="st12" d="M371,207c-5.1,0-7.3-5-9.3-9.4c-1-2.2-2-4.5-3.3-6c-1.4-1.6-3.1-2.7-4.7-3.7c-0.9-0.6-1.3-1.8-0.8-2.8
					l8-16.9c0.4-0.8,1.1-1.2,1.9-1.2c0.1,0,0.2,0,0.4,0c5.9,1,12,3.9,14.7,7c4.1,4.6,6.3,13.4,5.1,20.6c-0.9,5.1-3.4,8.9-7.1,10.9
					C374.1,206.5,372.5,207,371,207z"/>
			</g>
			<g>
				<path class="st9" d="M362.9,169.2c5.6,1,11.2,3.7,13.5,6.3c5.7,6.3,7.8,23.1-1.5,28.1c-1.5,0.8-2.8,1.2-3.9,1.2
					c-5.9,0-6.9-10-10.9-14.6c-1.5-1.7-3.3-3-5.2-4.1L362.9,169.2 M362.9,164.9c-1.6,0-3.2,0.9-3.9,2.5l-8,16.9
					c-0.9,2-0.2,4.4,1.7,5.5c1.4,0.9,3,1.9,4.2,3.2c1.1,1.2,2,3.4,2.9,5.4c1,2.2,2,4.5,3.4,6.4c2.1,2.8,4.7,4.2,7.8,4.2
					c1.9,0,3.8-0.5,5.9-1.7c4.4-2.4,7.2-6.7,8.2-12.4c1.4-7.8-1-17.2-5.6-22.4c-3.1-3.5-9.5-6.5-16-7.6
					C363.4,165,363.2,164.9,362.9,164.9L362.9,164.9z"/>
			</g>
		</g>
		<g>
			<g>
				<path class="st12" d="M417.2,232.4c-0.6,0-1.2-0.3-1.6-0.7c-0.4-0.5-0.6-1.1-0.5-1.7c0.1-1.3,0.6-2.7,1.4-4.3
					c2.1-4.1,6.5-6.3,12.3-6.3c1.6,0,3.2,0.2,4.9,0.5c0.7,0.1,1.3,0.6,1.6,1.3l3.9,8.1c0.3,0.7,0.3,1.4-0.1,2.1
					c-0.4,0.6-1.1,1-1.8,1H417.2z"/>
			</g>
			<g>
				<path class="st9" d="M428.8,221.6c1.5,0,3,0.2,4.5,0.4v0l3.9,8.2h-20.1c0.1-1,0.5-2.2,1.2-3.5
					C420.4,223,424.4,221.6,428.8,221.6 M428.8,217.3v4.3V217.3c-6.6,0-11.7,2.6-14.2,7.5c-0.9,1.8-1.5,3.4-1.7,5
					c-0.1,1.2,0.3,2.4,1.1,3.3s2,1.4,3.2,1.4h20.1c1.5,0,2.8-0.8,3.6-2c0.8-1.2,0.9-2.8,0.2-4.1l-3.9-8.2c-0.6-1.3-1.7-2.2-3.1-2.5
					C432.3,217.5,430.5,217.3,428.8,217.3L428.8,217.3z"/>
			</g>
		</g>
	</g>
	<g>
		<path class="st12" d="M385.1,130c-6.8,0-12.3-5.5-12.3-12.3c0-6.8,5.5-12.3,12.3-12.3c6.8,0,12.3,5.5,12.3,12.3
			C397.4,124.5,391.9,130,385.1,130z"/>
		<path class="st9" d="M385.1,107.4c5.7,0,10.3,4.6,10.3,10.3s-4.6,10.3-10.3,10.3s-10.3-4.6-10.3-10.3S379.4,107.4,385.1,107.4
			 M385.1,103.4c-7.9,0-14.3,6.4-14.3,14.3s6.4,14.3,14.3,14.3c7.9,0,14.3-6.4,14.3-14.3S393,103.4,385.1,103.4L385.1,103.4z"/>
	</g>
	<g>
		<line class="st13" x1="324.5" y1="239.4" x2="446.5" y2="239.4"/>
		<line class="st14" x1="324.5" y1="239.4" x2="446.5" y2="239.4"/>
	</g>
</g>
</svg>
